<svg width="144" height="32" viewBox="0 0 144 32" fill="none" xmlns="http://www.w3.org/2000/svg">
<path d="M24.908 0.55965C25.3066 0.55965 25.5073 0.774327 25.5073 1.20103V29.6021C25.5113 29.699 25.4915 29.7953 25.4496 29.8827C25.4076 29.9699 25.345 30.0457 25.267 30.103C25.0929 30.2285 24.8819 30.292 24.6677 30.2832H19.8384C19.6575 30.2878 19.4776 30.2542 19.3103 30.1852C19.1115 30.0712 18.9409 29.9135 18.8113 29.7241L6.98763 13.3793C6.87937 13.2177 6.78695 13.1461 6.70775 13.1594C6.62852 13.1726 6.58893 13.2574 6.58893 13.4244V29.6021C6.59881 29.7 6.5858 29.7988 6.55099 29.891C6.51614 29.9829 6.46043 30.0654 6.38825 30.1321C6.18496 30.2569 5.94701 30.3127 5.70968 30.2911H0.880398C0.29423 30.2911 0.00378493 30.026 0.00378493 29.5305V1.39981C-0.0168029 1.17114 0.0470959 0.942863 0.18333 0.758425C0.266494 0.683392 0.364559 0.626887 0.471051 0.592628C0.577535 0.558368 0.690054 0.547129 0.801189 0.55965H6.49916C6.73759 0.544475 6.97625 0.58531 7.19622 0.678915C7.4025 0.822366 7.58138 1.00192 7.7243 1.20898L18.3414 16.2311C18.4998 16.4458 18.6476 16.5518 18.7796 16.5518C18.9117 16.5518 18.9803 16.3901 18.9803 16.0694V1.3203C18.9803 0.814083 19.2444 0.55965 19.7724 0.55965H24.908Z" fill="#051549"/>
<path d="M35.1127 5.8017C35.1257 5.95243 35.1055 6.10418 35.0535 6.24616C35.0013 6.38816 34.9189 6.51692 34.8117 6.62331C34.5404 6.82017 34.2082 6.91409 33.8744 6.88835H28.8867C28.7535 6.90204 28.619 6.88766 28.4916 6.84613C28.3644 6.80459 28.2471 6.73682 28.1473 6.64717C27.9871 6.44288 27.9089 6.18563 27.9282 5.92628V1.43925C27.9166 1.20825 27.9877 0.980706 28.1288 0.797867C28.1919 0.719177 28.2726 0.656556 28.3644 0.615108C28.4562 0.573656 28.5565 0.554547 28.657 0.559337H34.4052C34.5038 0.554677 34.6023 0.57198 34.6936 0.61001C34.785 0.648039 34.8668 0.705853 34.9332 0.779315C35.0726 0.939318 35.1446 1.14746 35.1339 1.35974L35.1127 5.8017Z" fill="#051549"/>
<path d="M35.0733 29.1999C35.0892 29.3523 35.0726 29.5064 35.0243 29.6518C34.9759 29.7971 34.8972 29.9304 34.7934 30.0427C34.5234 30.2256 34.1989 30.3098 33.8746 30.2812H28.9265C28.7983 30.3112 28.6647 30.3086 28.5377 30.2738C28.4109 30.2389 28.2946 30.1729 28.1994 30.0816C28.1043 29.9903 28.0333 29.8766 27.9929 29.751C27.9525 29.6254 27.9439 29.4915 27.9679 29.3616V9.89748C27.9679 9.33561 28.2082 9.05469 28.6862 9.05469H34.3947C34.8462 9.05469 35.0733 9.31971 35.0733 9.81533V29.1999Z" fill="#051549"/>
<path d="M55.2837 12.019C54.4314 10.9881 53.3619 10.1599 52.1523 9.59391C50.7455 8.93857 49.2088 8.61318 47.6582 8.64244C45.7198 8.61522 43.8078 9.09864 42.1135 10.0445C40.4752 10.9726 39.1273 12.3411 38.2216 13.9961C37.2563 15.7625 36.7684 17.7516 36.8063 19.7659C36.7682 21.7517 37.2499 23.713 38.2031 25.4535C39.1055 27.0821 40.447 28.4224 42.0739 29.3204C43.7858 30.2584 45.7107 30.7352 47.6609 30.7038C49.5215 30.7038 51.111 30.3505 52.4295 29.6438C53.6292 29.0348 54.679 28.1657 55.5029 27.0994C56.1569 26.2631 56.651 25.3123 56.9604 24.2954C57.0016 24.1517 57.0281 24.0044 57.0396 23.8553C57.0396 23.6141 56.9049 23.4818 56.641 23.4552L53.2875 22.7343C53.1127 22.7057 52.9343 22.7057 52.7595 22.7343C52.707 22.7468 52.6582 22.7712 52.6164 22.8057C52.5748 22.8402 52.5416 22.8837 52.5192 22.933C52.0367 23.853 51.413 24.691 50.671 25.4164C50.0725 25.9464 49.2549 26.2115 48.2181 26.2115C45.4016 26.2115 43.9917 24.0285 43.9882 19.6625C43.9898 17.491 44.3296 15.8752 45.0073 14.8151C45.2978 14.3179 45.7159 13.908 46.2179 13.6283C46.7199 13.3486 47.2876 13.2093 47.8616 13.2249C48.7462 13.2249 49.3772 13.4555 49.7759 13.9219C50.2408 14.5127 50.5927 15.1849 50.8135 15.9044C50.8929 16.2251 51.0407 16.3841 51.2519 16.3841C51.2694 16.3962 51.2893 16.4043 51.3103 16.408C51.3313 16.4116 51.3528 16.4107 51.3734 16.4053C51.3977 16.3921 51.4249 16.3848 51.4526 16.3841L56.2819 16.0634C56.7598 16.0104 57 15.8249 57 15.5042C56.9849 15.3688 56.9584 15.2349 56.9208 15.104C56.5945 13.9727 56.0369 12.922 55.2837 12.019Z" fill="#051549"/>
<path d="M80.6541 29.5621C80.6543 29.6601 80.6345 29.7573 80.5961 29.8474C80.5575 29.9375 80.5009 30.0188 80.43 30.0864C80.3592 30.1539 80.2753 30.2061 80.1835 30.2398C80.0917 30.2737 79.994 30.2883 79.8964 30.2829H73.8288C73.3008 30.2829 72.8967 29.9781 72.6326 29.3632L69.1606 21.7911C69.0524 21.5262 68.9203 21.391 68.7592 21.391C68.602 21.4194 68.4602 21.5041 68.3606 21.6296L66.0053 23.8743C65.7941 24.0899 65.6885 24.4503 65.6885 24.9558V29.1963C65.7041 29.3473 65.6887 29.5001 65.6434 29.6451C65.5979 29.7899 65.5234 29.9242 65.4244 30.039C65.1501 30.2278 64.8179 30.3124 64.4872 30.2775H59.5706C59.288 30.3117 59.0035 30.2326 58.7785 30.0576C58.616 29.8627 58.5372 29.6111 58.5593 29.3579V1.3995C58.5461 1.17815 58.6095 0.959005 58.7389 0.779318C58.7994 0.70632 58.876 0.648445 58.9627 0.610266C59.0493 0.572086 59.1434 0.554653 59.238 0.55934H65.0098C65.4613 0.55934 65.6885 0.824374 65.6885 1.31999V17.0233C65.6885 17.2379 65.7412 17.344 65.8469 17.344C65.8998 17.344 65.9921 17.2776 66.1268 17.1452L72.8704 9.69241C73.006 9.50792 73.18 9.3551 73.38 9.24439C73.58 9.13367 73.8016 9.06772 74.0295 9.05103H78.938C79.4422 9.05103 79.6957 9.2127 79.6957 9.53339C79.6922 9.64711 79.6655 9.75889 79.6174 9.86189C79.5694 9.9649 79.5008 10.0569 79.4158 10.1324L74.0295 15.5417C73.8755 15.7056 73.7773 15.9145 73.7496 16.138C73.7765 16.3806 73.8587 16.6136 73.9899 16.8192L80.5749 29.236L80.6541 29.5621Z" fill="#051549"/>
<path fill-rule="evenodd" clip-rule="evenodd" d="M91.7045 25.9214C90.3491 25.9214 89.2313 25.5406 88.3513 24.7792C87.471 24.0176 87.0336 22.9707 87.039 21.6385C87.039 21.2117 87.2264 20.9998 87.5987 20.9998H100.571C100.885 20.9732 101.081 20.891 101.149 20.7586C101.233 20.5143 101.267 20.2557 101.25 19.9979C101.248 17.6427 100.795 15.6107 99.8923 13.9022C99.0498 12.2592 97.7453 10.9007 96.1404 9.99555C94.4506 9.0788 92.553 8.61679 90.6325 8.65448C88.7227 8.63878 86.8427 9.12976 85.1827 10.0777C83.525 11.0271 82.1558 12.4115 81.2221 14.0824C80.2108 15.8883 79.6959 17.9317 79.7303 20.0033C79.6952 21.9492 80.192 23.8679 81.1667 25.5504C82.114 27.1549 83.4847 28.4658 85.1272 29.3377C86.8591 30.2588 88.7942 30.7273 90.754 30.7C93.0195 30.7036 94.895 30.3421 96.3806 29.6161C97.8662 28.8898 99.2745 27.5647 100.605 25.6405C100.711 25.5157 100.78 25.3631 100.803 25.2006C100.803 25.0229 100.684 24.8666 100.444 24.758L97.1728 23.3983C97.0461 23.3459 96.9108 23.3181 96.7741 23.3161C96.7063 23.3171 96.6395 23.332 96.5778 23.3597C96.516 23.3875 96.4607 23.4278 96.4149 23.4778C95.7283 24.2286 94.9259 24.8641 94.0386 25.3596C93.3165 25.7314 92.5161 25.9241 91.7045 25.9214ZM94.1891 17.1277C94.0252 17.2082 93.8428 17.2429 93.6609 17.2284L87.1445 17.1886C87.1182 15.8793 87.464 14.8377 88.1821 14.0638C88.5313 13.6831 88.958 13.3821 89.4332 13.1814C89.9082 12.9806 90.4208 12.8848 90.936 12.9003C91.4181 12.8797 91.8978 12.9787 92.3326 13.1886C92.7673 13.3985 93.1438 13.7128 93.4287 14.1036C94.0029 14.8342 94.3188 15.7358 94.3264 16.6665C94.3264 16.9077 94.2814 17.0613 94.1891 17.1277Z" fill="#051549"/>
<path d="M110.448 29.2018C110.464 29.3542 110.448 29.5083 110.399 29.6536C110.351 29.799 110.272 29.9324 110.169 30.0447C109.899 30.2276 109.574 30.3118 109.25 30.2832H104.262C103.979 30.3177 103.695 30.2387 103.47 30.0632C103.389 29.9671 103.328 29.8558 103.29 29.7355C103.252 29.6154 103.239 29.4889 103.251 29.3635L103.409 1.39979C103.409 0.840567 103.649 0.55963 104.127 0.55963H109.757C109.851 0.554232 109.946 0.569968 110.035 0.605708C110.123 0.641449 110.202 0.696307 110.266 0.766357C110.394 0.924624 110.458 1.12502 110.446 1.32823L110.448 29.2018Z" fill="#051549"/>
<path d="M119.772 13.339C120.424 13.0013 121.151 12.8353 121.884 12.8566C123.701 12.8566 125.139 13.5192 126.199 14.8444C126.274 14.9589 126.374 15.0545 126.492 15.1239C126.609 15.1933 126.741 15.2346 126.877 15.2446C127.018 15.2351 127.154 15.1944 127.276 15.1253L130.55 13.5351C130.634 13.5073 130.706 13.4534 130.756 13.3814C130.806 13.3093 130.832 13.2229 130.83 13.1349C130.805 12.8854 130.708 12.6487 130.55 12.4538C129.911 11.3866 128.82 10.4855 127.276 9.75042C125.611 8.98966 123.798 8.61292 121.969 8.64789C120.262 8.60858 118.565 8.91505 116.979 9.54901C115.69 10.0553 114.575 10.9252 113.768 12.0536C113.034 13.1244 112.65 14.398 112.67 15.6978C112.67 19.0619 114.771 21.1593 118.975 21.9897L123.046 22.7849C123.87 22.9455 124.449 23.1594 124.784 23.4262C124.936 23.5353 125.061 23.6792 125.147 23.8459C125.234 24.0127 125.281 24.1976 125.283 24.3855C125.283 24.974 124.943 25.4281 124.263 25.7479C123.438 26.0979 122.545 26.2624 121.649 26.2303C120.266 26.2303 119.195 26.0095 118.436 25.5677C117.628 25.0865 116.918 24.4573 116.342 23.7124C116.279 23.6344 116.198 23.5722 116.106 23.5308C116.015 23.4894 115.915 23.47 115.814 23.4739C115.605 23.4801 115.4 23.5345 115.215 23.6329L112.102 25.2364C112.018 25.2846 111.95 25.3548 111.903 25.4393C111.857 25.5239 111.834 25.6196 111.838 25.7161C111.847 25.9313 111.915 26.1396 112.036 26.3177C112.736 27.6076 113.944 28.6597 115.658 29.4742C117.373 30.2889 119.415 30.6961 121.784 30.6961C124.738 30.6961 127.114 30.0777 128.913 28.8408C129.766 28.2879 130.462 27.5232 130.934 26.621C131.405 25.7188 131.637 24.7097 131.606 23.6911C131.636 22.1696 131.086 20.6939 130.07 19.5647C129.047 18.4179 127.417 17.5901 125.18 17.0813L120.791 16.0794C120.045 15.8939 119.546 15.6872 119.294 15.4593C119.176 15.3637 119.08 15.2427 119.014 15.1051C118.948 14.9675 118.914 14.8168 118.914 14.6642C118.916 14.384 118.997 14.1102 119.15 13.8752C119.302 13.6403 119.518 13.4542 119.772 13.339Z" fill="#051549"/>
<path d="M138.929 13.5336C138.19 13.5336 137.536 13.4071 136.967 13.1539C136.408 12.8902 135.938 12.5474 135.559 12.1255C135.179 11.693 134.894 11.2184 134.704 10.7015C134.514 10.1847 134.419 9.66786 134.419 9.15101V8.89786C134.419 8.35992 134.514 7.8378 134.704 7.33151C134.905 6.81466 135.195 6.34528 135.574 5.92337C135.965 5.50146 136.439 5.1692 136.998 4.9266C137.557 4.67345 138.201 4.54688 138.929 4.54688C139.656 4.54688 140.3 4.67345 140.859 4.9266C141.418 5.1692 141.887 5.50146 142.267 5.92337C142.657 6.34528 142.947 6.81466 143.137 7.33151C143.338 7.8378 143.438 8.35992 143.438 8.89786V9.15101C143.438 9.66786 143.343 10.1847 143.153 10.7015C142.963 11.2184 142.678 11.693 142.299 12.1255C141.919 12.5474 141.444 12.8902 140.875 13.1539C140.316 13.4071 139.667 13.5336 138.929 13.5336ZM138.929 12.7109C139.656 12.7109 140.289 12.5474 140.827 12.2204C141.376 11.8829 141.798 11.4399 142.093 10.8914C142.399 10.3324 142.552 9.71532 142.552 9.04026C142.552 8.3441 142.399 7.72178 142.093 7.17329C141.798 6.61425 141.376 6.17652 140.827 5.86008C140.289 5.5331 139.656 5.36961 138.929 5.36961C138.201 5.36961 137.563 5.5331 137.014 5.86008C136.476 6.17652 136.054 6.61425 135.748 7.17329C135.453 7.72178 135.305 8.3441 135.305 9.04026C135.305 9.71532 135.453 10.3324 135.748 10.8914C136.054 11.4399 136.476 11.8829 137.014 12.2204C137.563 12.5474 138.201 12.7109 138.929 12.7109ZM137.014 11.4293V6.44549H138.327V11.4293H137.014ZM139.91 11.4293L138.739 9.49909H140.115L141.349 11.4293H139.91ZM137.631 9.98957V8.89786H139.008C139.282 8.89786 139.477 8.83985 139.593 8.72382C139.72 8.6078 139.783 8.44431 139.783 8.23335C139.783 8.01184 139.72 7.84308 139.593 7.72705C139.477 7.61103 139.282 7.55301 139.008 7.55301H137.631V6.44549H138.944C139.641 6.44549 140.173 6.59843 140.542 6.90432C140.912 7.19966 141.096 7.6374 141.096 8.21753C141.096 8.79766 140.912 9.24067 140.542 9.54656C140.173 9.8419 139.641 9.98957 138.944 9.98957H137.631Z" fill="#051549"/>
</svg>
