<svg width="1800" height="1000" viewBox="0 0 1800 1000" fill="none" xmlns="http://www.w3.org/2000/svg">
<rect width="1800" height="1000" fill="#17182D"/>
<path d="M690.457 471.546L667.476 529.932H652.76L636.394 487.624L620.028 529.932H605.311L582.331 471.568H597.95L613.244 512.155L628.623 471.546H644.136L659.431 511.887L674.725 471.546H690.457Z" fill="white"/>
<path d="M732.455 516.104H746.431C745.671 519.438 743.877 522.447 741.304 524.7C736.397 529.17 728.734 531.403 718.317 531.398C711.43 531.398 705.554 530.256 700.688 527.972C695.823 525.687 692.413 522.345 690.457 517.944C689.259 515.267 688.667 512.359 688.722 509.426C688.697 506.356 689.317 503.315 690.542 500.499C692.474 496.146 695.823 492.856 700.59 490.627C705.357 488.399 711.019 487.283 717.577 487.278C724.299 487.278 729.94 488.477 734.5 490.874C738.887 493.054 742.378 496.694 744.372 501.169C745.918 504.916 746.679 508.941 746.607 512.994H702.543C702.751 513.84 703.027 514.668 703.368 515.469C704.365 517.735 706.226 519.43 708.953 520.553C712.046 521.754 715.346 522.331 718.662 522.253C721.001 522.277 723.334 522.012 725.608 521.463C727.43 521.07 729.125 520.232 730.544 519.023C731.462 518.266 732.128 517.248 732.455 516.104ZM708.565 498.201C706.244 499.17 704.38 500.988 703.354 503.285C703.1 503.849 702.881 504.428 702.698 505.019H732.786C732.609 504.398 732.387 503.79 732.124 503.2C731.059 500.873 729.133 499.05 726.75 498.116C723.858 496.979 720.768 496.432 717.661 496.508C714.543 496.417 711.441 496.994 708.565 498.201V498.201Z" fill="white"/>
<path d="M805.12 506.662V529.932H791.398V524.643C787.378 529.166 781.096 531.424 772.549 531.42C767.975 531.42 764.144 530.785 761.056 529.516C759.661 529.009 758.382 528.228 757.292 527.221C756.202 526.214 755.325 524.999 754.709 523.649C754.031 522.143 753.692 520.506 753.715 518.854C753.689 517.007 754.054 515.176 754.787 513.481C755.905 510.986 757.868 508.966 760.329 507.776C763.158 506.382 766.207 505.488 769.341 505.132C773.29 504.658 777.266 504.437 781.244 504.469H791.327V504.053C791.342 502.919 791.119 501.795 790.671 500.753C789.346 497.721 785.82 496.205 780.094 496.205C774.58 496.205 771.219 497.554 770.011 500.253C769.756 500.774 769.587 501.334 769.51 501.91H755.788C756.011 500.24 756.427 498.603 757.029 497.03C759.892 490.529 767.524 487.276 779.925 487.271C786.102 487.271 791.146 488.084 795.057 489.711C798.769 491.146 801.768 493.982 803.406 497.608C804.575 500.482 805.158 503.56 805.12 506.662V506.662ZM785.651 520.462C787.856 519.641 789.671 518.02 790.735 515.921C791.183 514.847 791.408 513.693 791.398 512.529V511.951H781.314C778.378 511.893 775.443 512.115 772.549 512.614C770.345 513.051 768.911 513.932 768.248 515.258C767.953 515.787 767.812 516.388 767.839 516.993C767.818 517.563 767.931 518.131 768.17 518.65C768.495 519.293 768.954 519.859 769.518 520.308C770.081 520.757 770.736 521.079 771.435 521.252C773.264 521.802 775.167 522.066 777.076 522.034C780.01 522.106 782.928 521.578 785.651 520.483V520.462Z" fill="white"/>
<path d="M817.191 471.546H830.829V529.932H817.191V471.546Z" fill="white"/>
<path d="M852.448 526.935C849.628 524.293 848.217 520.38 848.217 515.194V499.16H840.461V488.822H848.217V478.654H861.862V488.822H876.578V499.16H861.862V512.057C861.862 514.757 862.567 516.767 863.886 518.093C865.204 519.418 867.122 520.074 869.527 520.074C871.73 520.015 873.92 519.71 876.056 519.164V529.664C872.453 530.505 868.763 530.922 865.063 530.905C859.497 530.905 855.292 529.582 852.448 526.935Z" fill="white"/>
<path d="M932.101 492.172C935.57 495.462 937.307 500.243 937.312 506.514V529.932H923.583V509.017C923.583 505.257 922.619 502.436 920.692 500.556C918.764 498.675 915.944 497.735 912.23 497.735C908.154 497.735 905.042 498.91 902.894 501.261C900.746 503.611 899.669 506.902 899.665 511.133V529.932H886.027V471.546H899.665V494.858C901.582 492.4 904.083 490.461 906.942 489.217C910.157 487.862 913.621 487.198 917.11 487.271C923.635 487.257 928.632 488.89 932.101 492.172Z" fill="white"/>
<path d="M962.69 527.062C956.513 523.945 952.158 519.465 949.624 513.622C947.884 509.55 947.013 505.16 947.064 500.732C947.007 496.327 947.88 491.959 949.624 487.913C951.34 484.053 953.965 480.666 957.274 478.041C960.905 475.189 965.062 473.083 969.509 471.843C974.629 470.387 979.932 469.675 985.254 469.727C990.749 469.679 996.219 470.473 1001.47 472.082C1006.08 473.444 1010.35 475.768 1014 478.901C1016.38 481.091 1018.31 483.73 1019.67 486.666C1021.03 489.603 1021.8 492.78 1021.94 496.015H1006.89C1006.38 492.493 1004.63 489.268 1001.95 486.926C999.936 485.08 997.524 483.722 994.901 482.956C991.831 482.04 988.641 481.593 985.438 481.63C980.201 481.63 975.735 482.554 972.04 484.401C968.554 486.037 965.768 488.866 964.185 492.376C963.055 494.999 962.465 497.822 962.451 500.678C962.436 503.533 962.997 506.363 964.1 508.996C965.643 512.579 968.456 515.465 971.998 517.098C975.711 518.918 980.161 519.827 985.346 519.827C988.675 519.862 991.99 519.401 995.183 518.459C997.905 517.69 1000.42 516.322 1002.54 514.454C1003.78 513.274 1004.83 511.906 1005.64 510.4C1006.44 508.92 1006.91 507.284 1007.01 505.605H1022.06C1021.94 508.877 1021.18 512.095 1019.82 515.075C1018.48 517.931 1016.56 520.479 1014.18 522.556C1010.54 525.737 1006.25 528.079 1001.61 529.417C996.276 531.003 990.731 531.783 985.163 531.73C976.353 531.73 968.862 530.174 962.69 527.062Z" fill="white"/>
<path d="M1080.99 506.662V529.932H1067.26V524.643C1063.24 529.166 1056.96 531.424 1048.41 531.42C1043.84 531.42 1040.02 530.785 1036.93 529.516C1035.53 529.009 1034.25 528.229 1033.16 527.222C1032.07 526.214 1031.2 525 1030.58 523.649C1029.9 522.143 1029.56 520.506 1029.59 518.854C1029.56 517.007 1029.93 515.175 1030.67 513.481C1031.78 510.987 1033.74 508.966 1036.2 507.776C1039.03 506.383 1042.08 505.489 1045.21 505.132C1049.16 504.658 1053.14 504.437 1057.11 504.469H1067.22V504.053C1067.23 502.919 1067.01 501.795 1066.56 500.753C1065.23 497.721 1061.71 496.205 1055.98 496.205C1050.47 496.205 1047.11 497.554 1045.9 500.253C1045.64 500.775 1045.48 501.334 1045.4 501.91H1031.67C1031.9 500.24 1032.31 498.603 1032.91 497.03C1035.79 490.529 1043.42 487.276 1055.82 487.271C1061.99 487.271 1067.03 488.084 1070.94 489.711C1074.65 491.146 1077.65 493.982 1079.29 497.608C1080.46 500.482 1081.04 503.561 1080.99 506.662ZM1061.52 520.462C1063.73 519.639 1065.54 518.019 1066.61 515.921C1067.05 514.845 1067.27 513.692 1067.26 512.529V511.951H1057.18C1054.24 511.893 1051.31 512.115 1048.41 512.614C1046.21 513.051 1044.78 513.932 1044.12 515.258C1043.82 515.786 1043.68 516.387 1043.7 516.993C1043.69 517.563 1043.8 518.13 1044.03 518.65C1044.36 519.293 1044.82 519.859 1045.38 520.308C1045.95 520.757 1046.6 521.079 1047.3 521.252C1049.13 521.801 1051.03 522.065 1052.94 522.034C1055.88 522.106 1058.8 521.578 1061.52 520.483V520.462Z" fill="white"/>
<path d="M1149.72 509.328C1149.75 512.533 1149.13 515.711 1147.9 518.671C1146.14 522.692 1143.06 525.997 1139.18 528.049C1135.19 530.23 1130.49 531.319 1125.08 531.314C1121.42 531.356 1117.79 530.77 1114.33 529.579C1111.31 528.574 1108.59 526.842 1106.4 524.537V529.932H1093.08V471.546H1106.71V493.786C1108.91 491.569 1111.59 489.898 1114.56 488.907C1117.94 487.766 1121.49 487.206 1125.05 487.25C1129.93 487.14 1134.76 488.278 1139.07 490.557C1142.96 492.652 1146.05 495.964 1147.87 499.985C1149.11 502.942 1149.74 506.121 1149.72 509.328V509.328ZM1135.42 509.328C1135.46 507.629 1135.12 505.942 1134.43 504.392C1133.41 502.165 1131.62 500.387 1129.38 499.392C1126.76 498.212 1123.91 497.633 1121.04 497.7C1118.54 497.663 1116.05 498.096 1113.72 498.976C1111.66 499.748 1109.85 501.082 1108.51 502.826C1107.18 504.644 1106.49 506.856 1106.57 509.109V509.603C1106.49 511.856 1107.18 514.068 1108.51 515.885C1109.85 517.628 1111.66 518.96 1113.72 519.728C1116.05 520.611 1118.54 521.047 1121.04 521.012C1123.91 521.08 1126.76 520.499 1129.38 519.312C1131.64 518.304 1133.44 516.491 1134.43 514.228C1135.12 512.692 1135.45 511.014 1135.39 509.328H1135.42Z" fill="white"/>
<path d="M1160.64 481.094C1159.93 480.436 1159.38 479.633 1159.01 478.741C1158.65 477.849 1158.48 476.888 1158.52 475.925C1158.49 474.637 1158.82 473.367 1159.47 472.251C1160.1 471.171 1161.03 470.296 1162.15 469.727C1163.36 469.131 1164.69 468.821 1166.03 468.821C1167.38 468.821 1168.7 469.131 1169.91 469.727C1171.03 470.294 1171.96 471.17 1172.6 472.251C1173.24 473.366 1173.57 474.637 1173.55 475.925C1173.59 476.889 1173.42 477.849 1173.06 478.742C1172.69 479.634 1172.14 480.436 1171.43 481.094C1169.91 482.351 1167.99 483.039 1166.02 483.039C1164.04 483.039 1162.13 482.351 1160.6 481.094H1160.64ZM1159.19 488.85H1172.84V529.932H1159.19V488.85Z" fill="white"/>
<path d="M1231.45 492.172C1234.91 495.462 1236.65 500.243 1236.65 506.514V529.932H1222.93V509.017C1222.93 505.219 1221.96 502.38 1220.04 500.499C1218.11 498.619 1215.29 497.679 1211.58 497.679C1207.5 497.679 1204.38 498.854 1202.23 501.205C1200.08 503.555 1199 506.846 1199.01 511.076V529.932H1185.4V488.822H1199.04V494.858C1200.95 492.398 1203.46 490.459 1206.31 489.217C1209.53 487.862 1212.99 487.198 1216.48 487.271C1222.98 487.257 1227.97 488.89 1231.45 492.172Z" fill="white"/>
<path d="M1289.48 516.104H1303.44C1302.69 519.439 1300.89 522.449 1298.32 524.7C1293.41 529.17 1285.75 531.403 1275.33 531.398C1268.44 531.398 1262.57 530.256 1257.7 527.972C1252.84 525.687 1249.44 522.345 1247.48 517.944C1246.28 515.267 1245.69 512.359 1245.75 509.426C1245.72 506.356 1246.34 503.315 1247.57 500.499C1249.5 496.146 1252.84 492.856 1257.61 490.627C1262.37 488.399 1268.03 487.283 1274.6 487.278C1281.32 487.278 1286.96 488.477 1291.52 490.874C1295.9 493.06 1299.38 496.7 1301.36 501.169C1302.9 504.918 1303.66 508.942 1303.6 512.994H1259.53C1259.74 513.84 1260.02 514.668 1260.36 515.469C1261.35 517.735 1263.21 519.43 1265.94 520.553C1269.03 521.754 1272.33 522.332 1275.65 522.253C1277.99 522.277 1280.32 522.012 1282.6 521.463C1284.42 521.07 1286.11 520.232 1287.53 519.023C1288.46 518.273 1289.14 517.254 1289.48 516.104ZM1265.59 498.201C1263.27 499.17 1261.4 500.988 1260.38 503.285C1260.12 503.85 1259.9 504.429 1259.71 505.019H1289.81C1289.63 504.398 1289.41 503.79 1289.15 503.2C1288.08 500.873 1286.16 499.05 1283.77 498.116C1280.88 496.978 1277.79 496.431 1274.68 496.508C1271.56 496.418 1268.46 496.995 1265.59 498.201V498.201Z" fill="white"/>
<path d="M1321.02 526.935C1318.2 524.293 1316.79 520.38 1316.79 515.194V499.16H1309.03V488.822H1316.79V478.654H1330.43V488.822H1345.14V499.16H1330.43V512.057C1330.43 514.755 1331.1 516.767 1332.45 518.093C1333.8 519.418 1335.68 520.079 1338.09 520.074C1340.29 520.015 1342.48 519.71 1344.62 519.164V529.664C1341.01 530.505 1337.32 530.921 1333.62 530.905C1328.07 530.905 1323.87 529.582 1321.02 526.935Z" fill="white"/>
<path d="M1392.07 487.581C1392.1 490.077 1391.62 492.554 1390.66 494.858C1389.2 497.979 1386.74 500.524 1383.67 502.093C1380.45 503.827 1376.49 504.695 1371.81 504.695C1367.13 504.695 1363.16 503.827 1359.91 502.093C1356.83 500.548 1354.38 497.994 1352.96 494.858C1352 492.554 1351.52 490.077 1351.55 487.581C1351.53 485.158 1352.01 482.756 1352.96 480.53C1354.37 477.348 1356.82 474.74 1359.91 473.133C1363.16 471.342 1367.12 470.446 1371.81 470.446C1376.5 470.446 1380.45 471.314 1383.67 473.048C1386.74 474.617 1389.2 477.162 1390.66 480.283C1391.62 482.594 1392.1 485.078 1392.07 487.581V487.581ZM1387.69 487.581C1387.69 485.569 1387.3 483.575 1386.53 481.714C1385.48 479.336 1383.62 477.404 1381.28 476.257C1378.83 474.992 1375.67 474.36 1371.82 474.36C1364.21 474.36 1359.28 476.811 1357.01 481.714C1356.21 483.565 1355.82 485.565 1355.85 487.581C1355.85 489.596 1356.24 491.592 1357.01 493.455C1359.28 498.358 1364.21 500.809 1371.82 500.809C1375.68 500.809 1378.83 500.177 1381.28 498.913C1383.62 497.765 1385.48 495.833 1386.53 493.455C1387.3 491.592 1387.69 489.596 1387.69 487.581V487.581ZM1378.35 488.491C1378.89 488.594 1379.41 488.81 1379.86 489.123C1380.32 489.436 1380.7 489.84 1380.99 490.31C1381.55 491.468 1381.81 492.749 1381.74 494.033V497.171H1375.39V493.864C1375.44 493.409 1375.38 492.95 1375.22 492.522C1375.06 492.093 1374.81 491.706 1374.48 491.389C1373.88 490.888 1372.85 490.641 1371.42 490.641H1368.2V497.171H1361.92V477.991H1373.41C1376.27 477.991 1378.41 478.461 1379.81 479.401C1380.51 479.858 1381.07 480.49 1381.44 481.233C1381.81 481.975 1381.98 482.803 1381.93 483.632C1381.91 486.049 1380.72 487.668 1378.35 488.491ZM1371.73 486.425C1372.72 486.484 1373.71 486.33 1374.63 485.973C1374.93 485.826 1375.17 485.593 1375.33 485.305C1375.49 485.017 1375.57 484.688 1375.54 484.359C1375.57 484.025 1375.5 483.69 1375.34 483.394C1375.19 483.098 1374.95 482.853 1374.66 482.687C1373.77 482.297 1372.81 482.125 1371.84 482.187H1368.2V486.418L1371.73 486.425Z" fill="white"/>
<path d="M458.22 537.688L410.271 501.571C409.759 501.185 409.344 500.685 409.058 500.111C408.772 499.537 408.622 498.905 408.621 498.264V466.314C408.619 465.546 408.831 464.793 409.233 464.139C409.636 463.485 410.213 462.957 410.9 462.613C411.586 462.269 412.355 462.124 413.12 462.194C413.885 462.263 414.615 462.545 415.228 463.007L463.178 499.131C463.686 499.519 464.098 500.018 464.383 500.59C464.668 501.162 464.818 501.792 464.821 502.431V534.388C464.823 535.156 464.61 535.909 464.206 536.562C463.802 537.215 463.224 537.742 462.536 538.083C461.852 538.427 461.084 538.571 460.322 538.499C459.56 538.428 458.833 538.147 458.22 537.688Z" fill="#75B5FF"/>
<path d="M520.336 537.688L472.386 501.571C471.877 501.183 471.462 500.683 471.174 500.111C470.885 499.538 470.735 498.905 470.736 498.264V466.314C470.735 465.739 470.854 465.171 471.085 464.645C471.316 464.118 471.654 463.646 472.079 463.259C472.503 462.871 473.003 462.576 473.548 462.393C474.093 462.21 474.67 462.143 475.242 462.196C476.009 462.266 476.741 462.547 477.358 463.007L525.307 499.131C525.818 499.514 526.234 500.009 526.521 500.58C526.809 501.15 526.96 501.779 526.964 502.417V534.388C526.966 535.158 526.754 535.913 526.35 536.568C525.947 537.223 525.368 537.753 524.679 538.097C523.99 538.437 523.219 538.579 522.453 538.507C521.687 538.435 520.957 538.151 520.343 537.688H520.336Z" fill="#75B5FF"/>
<path d="M557.99 478.555L537.231 462.824C536.781 462.483 536.265 462.239 535.716 462.109C535.167 461.979 534.597 461.965 534.042 462.068C533.487 462.171 532.96 462.388 532.494 462.707C532.028 463.025 531.633 463.437 531.336 463.917C530.938 464.55 530.727 465.284 530.73 466.032V497.495C530.727 498.244 530.938 498.977 531.336 499.611C531.735 500.252 532.304 500.77 532.98 501.106C533.656 501.443 534.413 501.584 535.165 501.515C535.915 501.44 536.63 501.159 537.231 500.704L557.99 484.972C558.487 484.601 558.891 484.118 559.168 483.562C559.446 483.001 559.591 482.383 559.591 481.757C559.591 481.13 559.446 480.513 559.168 479.952C558.889 479.401 558.486 478.923 557.99 478.555V478.555Z" fill="#75B5FF"/>
</svg>
